<svg version="1.1" id="Layer_1" xmlns="http://www.w3.org/2000/svg" xmlns:xlink="http://www.w3.org/1999/xlink" x="0px" y="0px"
	 width="100%" viewBox="0 0 2409 1058" enable-background="new 0 0 2409 1058" xml:space="preserve">
<path fill="#000000" opacity="1.000000" stroke="none" 
	d="
M2232.000000,1059.000000 
	C1488.000244,1059.000000 744.500427,1059.000000 1.000499,1059.000000 
	C1.000332,706.333679 1.000332,353.667328 1.000166,1.000735 
	C803.999451,1.000490 1606.998901,1.000490 2409.998535,1.000245 
	C2409.999023,353.666016 2409.999023,706.332031 2409.999512,1058.999023 
	C2350.833252,1059.000000 2291.666748,1059.000000 2232.000000,1059.000000 
M1297.407227,612.901611 
	C1304.183838,605.757385 1306.603638,597.004700 1307.031738,587.426636 
	C1307.653198,573.524414 1303.830322,561.489502 1292.702148,552.747192 
	C1292.916504,552.003662 1292.932007,551.637817 1293.108154,551.383301 
	C1309.542480,527.645569 1299.452026,499.479431 1271.119263,494.336395 
	C1253.518677,491.141418 1235.171875,492.057159 1217.005615,491.119934 
	C1217.005615,536.911438 1217.005615,581.299561 1217.005615,625.768616 
	C1234.062378,625.768616 1250.880127,626.282227 1267.647583,625.585571 
	C1278.576538,625.131470 1288.824951,621.481140 1297.407227,612.901611 
M1043.049927,489.591644 
	C1017.941711,486.265991 996.731018,499.828156 991.523376,524.410278 
	C986.805115,546.682068 986.976685,569.560364 991.215576,591.872559 
	C995.872009,616.382751 1013.960815,629.512695 1038.904053,628.854309 
	C1063.014648,628.217896 1081.785645,611.759399 1083.685425,589.154785 
	C1077.354248,589.154785 1071.045532,589.007019 1064.757324,589.299438 
	C1063.702271,589.348572 1062.603271,591.209167 1061.753784,592.396667 
	C1059.276855,595.859131 1057.603760,600.320312 1054.378540,602.743286 
	C1045.235718,609.611877 1034.688477,609.613953 1024.508667,605.550171 
	C1015.358398,601.897461 1011.399902,593.655640 1011.125549,584.397583 
	C1010.617737,567.263184 1010.470459,550.079163 1011.198792,532.959534 
	C1011.756287,519.855347 1019.958557,511.984711 1032.831177,510.305817 
	C1043.917847,508.859863 1057.964478,512.205139 1061.961426,526.271545 
	C1062.247192,527.277527 1063.534058,528.701538 1064.394653,528.729614 
	C1070.780884,528.938293 1077.177124,528.842773 1083.636719,528.842773 
	C1080.856079,506.928040 1065.497681,492.025696 1043.049927,489.591644 
M928.489502,494.986176 
	C913.630676,500.685303 904.404297,511.676544 901.280212,526.892029 
	C896.997375,547.751221 896.982422,568.997253 901.058716,589.854065 
	C904.712830,608.550476 916.088928,621.755127 935.456299,624.658875 
	C949.441589,626.755615 963.858765,625.971802 978.247925,626.478516 
	C978.247925,618.582214 978.247925,611.697266 978.247925,604.947388 
	C977.588135,604.695740 977.284607,604.479675 976.980286,604.478455 
	C966.490540,604.437134 955.999390,604.514160 945.511292,604.368042 
	C931.514648,604.173157 922.169006,597.220825 921.287354,583.853699 
	C920.196167,567.310364 920.260742,550.582397 921.368286,534.037476 
	C922.218933,521.331848 930.196716,514.580627 943.122437,513.675903 
	C953.064209,512.980103 963.081360,513.358215 973.065002,513.264893 
	C974.814575,513.248474 976.564392,513.262512 978.221558,513.262512 
	C978.221558,505.718719 978.221558,498.982544 978.221558,491.991211 
	C971.022095,491.991211 964.184143,491.655823 957.392395,492.072418 
	C947.983398,492.649536 938.609009,493.792145 928.489502,494.986176 
M1593.609375,502.484741 
	C1593.609375,499.068787 1593.609375,495.652832 1593.609375,492.117859 
	C1580.672241,492.117859 1568.484375,491.473267 1556.390015,492.261414 
	C1535.658813,493.612396 1520.559692,506.683075 1516.145752,527.005737 
	C1511.722412,547.371948 1511.932129,568.069580 1515.524902,588.471375 
	C1519.242432,609.582581 1532.476074,622.709656 1553.322510,625.220337 
	C1566.396484,626.794861 1579.814331,625.513550 1593.269653,625.513550 
	C1593.269653,618.626160 1593.269653,611.738708 1593.269653,604.387024 
	C1581.978638,604.387024 1571.018188,604.547424 1560.064453,604.347595 
	C1545.407349,604.080261 1537.076782,597.166260 1536.016846,582.550476 
	C1534.936035,567.650330 1534.645142,552.582886 1535.530884,537.679138 
	C1536.537598,520.741821 1545.546753,513.374451 1562.639893,513.274414 
	C1571.466675,513.222778 1580.294067,513.280396 1589.121094,513.249634 
	C1590.537720,513.244690 1591.953613,513.034546 1593.609009,512.899780 
	C1593.609009,509.424896 1593.609009,506.438293 1593.609375,502.484741 
M1374.854736,607.499268 
	C1374.854736,593.527344 1374.854736,579.555420 1374.854736,565.721924 
	C1399.023315,556.094482 1412.321411,540.245789 1410.562256,523.145264 
	C1405.447632,523.145264 1400.289307,523.383728 1395.165649,523.064514 
	C1391.529297,522.837891 1389.915405,523.996948 1389.032593,527.623047 
	C1387.150269,535.354126 1382.624023,541.416321 1374.758423,543.570435 
	C1356.528564,548.562744 1338.691162,543.216919 1337.666626,518.734924 
	C1337.299072,509.952881 1337.607666,501.142578 1337.607666,492.270630 
	C1329.909912,492.270630 1322.996704,492.270630 1315.195312,492.270630 
	C1315.829224,503.687256 1315.755859,514.878052 1317.233398,525.860229 
	C1319.149048,540.099854 1325.578247,552.205627 1338.536133,559.642944 
	C1343.041626,562.228821 1348.153320,563.758545 1353.358276,565.924744 
	C1353.358276,585.740479 1353.358276,605.666565 1353.358276,625.694946 
	C1360.647949,625.694946 1367.542847,625.694946 1374.854614,625.694946 
	C1374.854614,619.758911 1374.854614,614.128723 1374.854736,607.499268 
M807.603149,491.991211 
	C805.340881,491.991211 803.078613,491.991211 800.657349,491.991211 
	C800.657349,499.366516 800.657349,506.104187 800.657349,513.324341 
	C812.817688,513.324341 824.723633,513.324341 837.287842,513.324341 
	C837.287842,551.132324 837.287842,588.462524 837.287842,625.591309 
	C844.857178,625.591309 851.750000,625.591309 858.603516,625.591309 
	C858.603516,580.957764 858.603516,536.742065 858.603516,491.991211 
	C841.763489,491.991211 825.169250,491.991211 807.603149,491.991211 
M1452.139160,622.262207 
	C1452.001221,624.413574 1452.057495,626.156128 1455.125244,626.063232 
	C1461.085327,625.882629 1467.054688,626.010376 1473.191895,626.010376 
	C1473.191895,581.156982 1473.191895,536.695557 1473.191895,492.195435 
	C1453.833740,492.195435 1434.900879,492.195435 1415.739258,492.195435 
	C1415.739258,499.265991 1415.739258,506.124115 1415.739258,513.500244 
	C1427.969727,513.500244 1439.850708,513.500244 1452.138794,513.500244 
	C1452.138794,549.783264 1452.138794,585.546753 1452.139160,622.262207 
M1098.844971,588.500000 
	C1098.844971,600.909912 1098.844971,613.319763 1098.844971,625.681885 
	C1106.335815,625.681885 1113.081177,625.681885 1119.784546,625.681885 
	C1119.784546,581.002747 1119.784546,536.642761 1119.784546,492.318024 
	C1112.664429,492.318024 1105.919067,492.318024 1098.844849,492.318024 
	C1098.844849,524.256592 1098.844849,555.878296 1098.844971,588.500000 
M1195.155029,596.500000 
	C1195.155029,561.786621 1195.155029,527.073242 1195.155029,492.311798 
	C1187.775146,492.311798 1181.049194,492.311798 1174.304932,492.311798 
	C1174.304932,536.968506 1174.304932,581.312683 1174.304932,625.688477 
	C1181.345825,625.688477 1188.077637,625.688477 1195.155151,625.688477 
	C1195.155151,616.087524 1195.155151,606.793762 1195.155029,596.500000 
M876.816772,495.357086 
	C873.090515,500.789734 873.025391,505.726776 876.626099,509.819397 
	C879.884216,513.522766 885.374084,514.535461 889.745483,512.239685 
	C894.317200,509.838715 896.510376,504.674957 894.987427,499.560577 
	C892.705994,491.898407 883.120728,489.317932 876.816772,495.357086 
M958.737122,567.320862 
	C963.218140,562.489929 964.021973,558.074829 961.264282,553.440369 
	C958.749878,549.214722 953.900940,547.173889 949.319641,548.466980 
	C944.909607,549.711792 942.185608,552.667603 941.350586,557.108093 
	C940.542664,561.404541 942.125854,565.041077 945.615967,567.568237 
	C949.644104,570.484985 953.932312,570.481201 958.737122,567.320862 
M1157.660645,560.954041 
	C1159.366089,553.300110 1151.646606,546.593811 1144.674438,548.346252 
	C1139.628540,549.614563 1135.977539,554.195740 1136.129761,559.200378 
	C1136.284912,564.295837 1140.053345,568.570190 1145.247314,569.541870 
	C1150.555908,570.534912 1154.896484,567.735718 1157.660645,560.954041 
M1577.660278,559.374207 
	C1576.312378,549.805847 1568.561035,545.252869 1561.224609,549.720154 
	C1557.098999,552.232361 1555.099854,557.218811 1556.402832,561.748169 
	C1557.777100,566.525024 1562.308594,569.903076 1567.167114,569.772644 
	C1572.361450,569.633240 1575.869995,566.378174 1577.660278,559.374207 
M1395.229980,493.640900 
	C1389.660034,499.089508 1389.352295,505.988342 1394.479614,510.457916 
	C1399.223999,514.593628 1406.448364,513.786011 1410.275024,508.692047 
	C1413.043823,505.006256 1412.969727,499.430481 1410.102905,495.748779 
	C1406.746948,491.438873 1401.971558,490.582123 1395.229980,493.640900 
M1492.884644,494.211792 
	C1486.240479,501.320374 1488.184326,510.928955 1496.699341,513.068665 
	C1501.481445,514.270325 1506.309082,512.386292 1508.767822,508.358856 
	C1511.168213,504.427124 1510.626953,498.841919 1507.516846,495.450867 
	C1503.891479,491.497742 1499.445679,490.972321 1492.884644,494.211792 
z"/>
<path fill="#9F8B8A" opacity="1.000000" stroke="none" 
	d="
M1297.154907,613.153809 
	C1288.824951,621.481140 1278.576538,625.131470 1267.647583,625.585571 
	C1250.880127,626.282227 1234.062378,625.768616 1217.005615,625.768616 
	C1217.005615,581.299561 1217.005615,536.911438 1217.005615,491.119934 
	C1235.171875,492.057159 1253.518677,491.141418 1271.119263,494.336395 
	C1299.452026,499.479431 1309.542480,527.645569 1293.108154,551.383301 
	C1292.932007,551.637817 1292.916504,552.003662 1292.702148,552.747192 
	C1303.830322,561.489502 1307.653198,573.524414 1307.031738,587.426636 
	C1306.603638,597.004700 1304.183838,605.757385 1297.154907,613.153809 
M1278.047241,600.795593 
	C1285.357422,595.824890 1286.673462,588.603271 1285.351562,580.590088 
	C1284.030396,572.580811 1278.841064,567.407043 1271.118652,566.788757 
	C1260.321655,565.924194 1249.403687,566.570740 1238.440186,566.570740 
	C1238.440186,578.968933 1238.440186,591.362793 1238.440186,604.071594 
	C1248.468506,604.071594 1258.226074,604.305542 1267.961060,603.937500 
	C1271.129028,603.817749 1274.237305,602.125610 1278.047241,600.795593 
M1238.159302,541.203125 
	C1239.299805,542.134705 1240.393433,543.793030 1241.588989,543.870178 
	C1246.387207,544.179504 1251.240723,544.295654 1256.028564,543.915588 
	C1260.771484,543.539185 1265.641846,543.039978 1270.127930,541.583252 
	C1276.201538,539.611267 1279.042236,534.795105 1278.992798,528.668030 
	C1278.945312,522.775024 1275.247803,517.219116 1269.479736,515.370056 
	C1259.360474,512.126343 1248.958252,513.148621 1238.156128,513.391418 
	C1238.156128,522.703796 1238.156128,531.478760 1238.159302,541.203125 
z"/>
<path fill="#9E8988" opacity="1.000000" stroke="none" 
	d="
M1043.497681,489.652283 
	C1065.497681,492.025696 1080.856079,506.928040 1083.636719,528.842773 
	C1077.177124,528.842773 1070.780884,528.938293 1064.394653,528.729614 
	C1063.534058,528.701538 1062.247192,527.277527 1061.961426,526.271545 
	C1057.964478,512.205139 1043.917847,508.859863 1032.831177,510.305817 
	C1019.958557,511.984711 1011.756287,519.855347 1011.198792,532.959534 
	C1010.470459,550.079163 1010.617737,567.263184 1011.125549,584.397583 
	C1011.399902,593.655640 1015.358398,601.897461 1024.508667,605.550171 
	C1034.688477,609.613953 1045.235718,609.611877 1054.378540,602.743286 
	C1057.603760,600.320312 1059.276855,595.859131 1061.753784,592.396667 
	C1062.603271,591.209167 1063.702271,589.348572 1064.757324,589.299438 
	C1071.045532,589.007019 1077.354248,589.154785 1083.685425,589.154785 
	C1081.785645,611.759399 1063.014648,628.217896 1038.904053,628.854309 
	C1013.960815,629.512695 995.872009,616.382751 991.215576,591.872559 
	C986.976685,569.560364 986.805115,546.682068 991.523376,524.410278 
	C996.731018,499.828156 1017.941711,486.265991 1043.497681,489.652283 
z"/>
<path fill="#9E8988" opacity="1.000000" stroke="none" 
	d="
M928.854675,494.839417 
	C938.609009,493.792145 947.983398,492.649536 957.392395,492.072418 
	C964.184143,491.655823 971.022095,491.991211 978.221558,491.991211 
	C978.221558,498.982544 978.221558,505.718719 978.221558,513.262512 
	C976.564392,513.262512 974.814575,513.248474 973.065002,513.264893 
	C963.081360,513.358215 953.064209,512.980103 943.122437,513.675903 
	C930.196716,514.580627 922.218933,521.331848 921.368286,534.037476 
	C920.260742,550.582397 920.196167,567.310364 921.287354,583.853699 
	C922.169006,597.220825 931.514648,604.173157 945.511292,604.368042 
	C955.999390,604.514160 966.490540,604.437134 976.980286,604.478455 
	C977.284607,604.479675 977.588135,604.695740 978.247925,604.947388 
	C978.247925,611.697266 978.247925,618.582214 978.247925,626.478516 
	C963.858765,625.971802 949.441589,626.755615 935.456299,624.658875 
	C916.088928,621.755127 904.712830,608.550476 901.058716,589.854065 
	C896.982422,568.997253 896.997375,547.751221 901.280212,526.892029 
	C904.404297,511.676544 913.630676,500.685303 928.854675,494.839417 
z"/>
<path fill="#9E8988" opacity="1.000000" stroke="none" 
	d="
M1593.609131,502.968201 
	C1593.609009,506.438293 1593.609009,509.424896 1593.609009,512.899780 
	C1591.953613,513.034546 1590.537720,513.244690 1589.121094,513.249634 
	C1580.294067,513.280396 1571.466675,513.222778 1562.639893,513.274414 
	C1545.546753,513.374451 1536.537598,520.741821 1535.530884,537.679138 
	C1534.645142,552.582886 1534.936035,567.650330 1536.016846,582.550476 
	C1537.076782,597.166260 1545.407349,604.080261 1560.064453,604.347595 
	C1571.018188,604.547424 1581.978638,604.387024 1593.269653,604.387024 
	C1593.269653,611.738708 1593.269653,618.626160 1593.269653,625.513550 
	C1579.814331,625.513550 1566.396484,626.794861 1553.322510,625.220337 
	C1532.476074,622.709656 1519.242432,609.582581 1515.524902,588.471375 
	C1511.932129,568.069580 1511.722412,547.371948 1516.145752,527.005737 
	C1520.559692,506.683075 1535.658813,493.612396 1556.390015,492.261414 
	C1568.484375,491.473267 1580.672241,492.117859 1593.609375,492.117859 
	C1593.609375,495.652832 1593.609375,499.068787 1593.609131,502.968201 
z"/>
<path fill="#9E8988" opacity="1.000000" stroke="none" 
	d="
M1374.854736,607.998901 
	C1374.854614,614.128723 1374.854614,619.758911 1374.854614,625.694946 
	C1367.542847,625.694946 1360.647949,625.694946 1353.358276,625.694946 
	C1353.358276,605.666565 1353.358276,585.740479 1353.358276,565.924744 
	C1348.153320,563.758545 1343.041626,562.228821 1338.536133,559.642944 
	C1325.578247,552.205627 1319.149048,540.099854 1317.233398,525.860229 
	C1315.755859,514.878052 1315.829224,503.687256 1315.195312,492.270630 
	C1322.996704,492.270630 1329.909912,492.270630 1337.607666,492.270630 
	C1337.607666,501.142578 1337.299072,509.952881 1337.666626,518.734924 
	C1338.691162,543.216919 1356.528564,548.562744 1374.758423,543.570435 
	C1382.624023,541.416321 1387.150269,535.354126 1389.032593,527.623047 
	C1389.915405,523.996948 1391.529297,522.837891 1395.165649,523.064514 
	C1400.289307,523.383728 1405.447632,523.145264 1410.562256,523.145264 
	C1412.321411,540.245789 1399.023315,556.094482 1374.854736,565.721924 
	C1374.854736,579.555420 1374.854736,593.527344 1374.854736,607.998901 
z"/>
<path fill="#9E8988" opacity="1.000000" stroke="none" 
	d="
M808.089050,491.991211 
	C825.169250,491.991211 841.763489,491.991211 858.603516,491.991211 
	C858.603516,536.742065 858.603516,580.957764 858.603516,625.591309 
	C851.750000,625.591309 844.857178,625.591309 837.287842,625.591309 
	C837.287842,588.462524 837.287842,551.132324 837.287842,513.324341 
	C824.723633,513.324341 812.817688,513.324341 800.657349,513.324341 
	C800.657349,506.104187 800.657349,499.366516 800.657349,491.991211 
	C803.078613,491.991211 805.340881,491.991211 808.089050,491.991211 
z"/>
<path fill="#9C8887" opacity="1.000000" stroke="none" 
	d="
M1452.138916,621.786255 
	C1452.138794,585.546753 1452.138794,549.783264 1452.138794,513.500244 
	C1439.850708,513.500244 1427.969727,513.500244 1415.739258,513.500244 
	C1415.739258,506.124115 1415.739258,499.265991 1415.739258,492.195435 
	C1434.900879,492.195435 1453.833740,492.195435 1473.191895,492.195435 
	C1473.191895,536.695557 1473.191895,581.156982 1473.191895,626.010376 
	C1467.054688,626.010376 1461.085327,625.882629 1455.125244,626.063232 
	C1452.057495,626.156128 1452.001221,624.413574 1452.138916,621.786255 
z"/>
<path fill="#A18C8B" opacity="1.000000" stroke="none" 
	d="
M1098.844971,588.000000 
	C1098.844849,555.878296 1098.844849,524.256592 1098.844849,492.318024 
	C1105.919067,492.318024 1112.664429,492.318024 1119.784546,492.318024 
	C1119.784546,536.642761 1119.784546,581.002747 1119.784546,625.681885 
	C1113.081177,625.681885 1106.335815,625.681885 1098.844971,625.681885 
	C1098.844971,613.319763 1098.844971,600.909912 1098.844971,588.000000 
z"/>
<path fill="#A18C8B" opacity="1.000000" stroke="none" 
	d="
M1195.155029,597.000000 
	C1195.155151,606.793762 1195.155151,616.087524 1195.155151,625.688477 
	C1188.077637,625.688477 1181.345825,625.688477 1174.304932,625.688477 
	C1174.304932,581.312683 1174.304932,536.968506 1174.304932,492.311798 
	C1181.049194,492.311798 1187.775146,492.311798 1195.155029,492.311798 
	C1195.155029,527.073242 1195.155029,561.786621 1195.155029,597.000000 
z"/>
<path fill="#FAFAFA" opacity="1.000000" stroke="none" 
	d="
M877.086060,495.087799 
	C883.120728,489.317932 892.705994,491.898407 894.987427,499.560577 
	C896.510376,504.674957 894.317200,509.838715 889.745483,512.239685 
	C885.374084,514.535461 879.884216,513.522766 876.626099,509.819397 
	C873.025391,505.726776 873.090515,500.789734 877.086060,495.087799 
z"/>
<path fill="#F7F7F7" opacity="1.000000" stroke="none" 
	d="
M958.453003,567.562378 
	C953.932312,570.481201 949.644104,570.484985 945.615967,567.568237 
	C942.125854,565.041077 940.542664,561.404541 941.350586,557.108093 
	C942.185608,552.667603 944.909607,549.711792 949.319641,548.466980 
	C953.900940,547.173889 958.749878,549.214722 961.264282,553.440369 
	C964.021973,558.074829 963.218140,562.489929 958.453003,567.562378 
z"/>
<path fill="#F7F7F7" opacity="1.000000" stroke="none" 
	d="
M1157.536377,561.325439 
	C1154.896484,567.735718 1150.555908,570.534912 1145.247314,569.541870 
	C1140.053345,568.570190 1136.284912,564.295837 1136.129761,559.200378 
	C1135.977539,554.195740 1139.628540,549.614563 1144.674438,548.346252 
	C1151.646606,546.593811 1159.366089,553.300110 1157.536377,561.325439 
z"/>
<path fill="#F7F7F7" opacity="1.000000" stroke="none" 
	d="
M1577.604980,559.757446 
	C1575.869995,566.378174 1572.361450,569.633240 1567.167114,569.772644 
	C1562.308594,569.903076 1557.777100,566.525024 1556.402832,561.748169 
	C1555.099854,557.218811 1557.098999,552.232361 1561.224609,549.720154 
	C1568.561035,545.252869 1576.312378,549.805847 1577.604980,559.757446 
z"/>
<path fill="#FAFAFA" opacity="1.000000" stroke="none" 
	d="
M1395.518311,493.412354 
	C1401.971558,490.582123 1406.746948,491.438873 1410.102905,495.748779 
	C1412.969727,499.430481 1413.043823,505.006256 1410.275024,508.692047 
	C1406.448364,513.786011 1399.223999,514.593628 1394.479614,510.457916 
	C1389.352295,505.988342 1389.660034,499.089508 1395.518311,493.412354 
z"/>
<path fill="#FAFAFA" opacity="1.000000" stroke="none" 
	d="
M1493.205078,494.004456 
	C1499.445679,490.972321 1503.891479,491.497742 1507.516846,495.450867 
	C1510.626953,498.841919 1511.168213,504.427124 1508.767822,508.358856 
	C1506.309082,512.386292 1501.481445,514.270325 1496.699341,513.068665 
	C1488.184326,510.928955 1486.240479,501.320374 1493.205078,494.004456 
z"/>
<path fill="#010101" opacity="1.000000" stroke="none" 
	d="
M1277.710083,600.974121 
	C1274.237305,602.125610 1271.129028,603.817749 1267.961060,603.937500 
	C1258.226074,604.305542 1248.468506,604.071594 1238.440186,604.071594 
	C1238.440186,591.362793 1238.440186,578.968933 1238.440186,566.570740 
	C1249.403687,566.570740 1260.321655,565.924194 1271.118652,566.788757 
	C1278.841064,567.407043 1284.030396,572.580811 1285.351562,580.590088 
	C1286.673462,588.603271 1285.357422,595.824890 1277.710083,600.974121 
z"/>
<path fill="#010101" opacity="1.000000" stroke="none" 
	d="
M1238.157715,540.728394 
	C1238.156128,531.478760 1238.156128,522.703796 1238.156128,513.391418 
	C1248.958252,513.148621 1259.360474,512.126343 1269.479736,515.370056 
	C1275.247803,517.219116 1278.945312,522.775024 1278.992798,528.668030 
	C1279.042236,534.795105 1276.201538,539.611267 1270.127930,541.583252 
	C1265.641846,543.039978 1260.771484,543.539185 1256.028564,543.915588 
	C1251.240723,544.295654 1246.387207,544.179504 1241.588989,543.870178 
	C1240.393433,543.793030 1239.299805,542.134705 1238.157715,540.728394 
z"/>
</svg>